<svg width="192" height="192" viewBox="0 0 192 192" fill="none" xmlns="http://www.w3.org/2000/svg">
<rect width="192" height="192" fill="#F9ECF0"/>
<rect x="40" y="40" width="112" height="112" rx="18" fill="#F9ECF0"/>
<path fill-rule="evenodd" clip-rule="evenodd" d="M96.0012 119.757L89.2228 139.873C86.4741 148.017 76.8732 150.82 71.1934 144.656C69.9886 144.966 68.7313 145.003 67.5106 144.766C66.29 144.528 65.1359 144.022 64.1303 143.282C63.1248 142.542 62.2923 141.587 61.692 140.485C61.0917 139.383 60.7383 138.161 60.6569 136.905C53.1213 133.34 52.7719 123.227 59.5892 118.066L76.3957 105.331L55.4041 105.033C46.898 104.907 41.3075 96.5231 45.3335 89.1534C44.6722 88.088 44.25 86.8885 44.097 85.6398C43.9439 84.391 44.0636 83.1235 44.4476 81.9268C44.8316 80.73 45.4706 79.6333 46.3193 78.714C47.1681 77.7948 48.2059 77.0756 49.3594 76.6071C50.3804 68.2468 59.7717 64.7919 66.7249 69.7561L83.8807 82.0037L77.6691 61.6985C75.1728 53.4955 81.2641 45.4615 89.4829 47.0966C90.279 46.1295 91.2753 45.3514 92.4014 44.8175C93.5275 44.2835 94.7558 44.0067 95.9993 44.0067C97.2428 44.0067 98.4711 44.2835 99.5972 44.8175C100.723 45.3514 101.72 46.1295 102.516 47.0966C110.727 45.4615 116.822 53.4955 114.33 61.6985L108.118 82.0037L125.274 69.7522C132.227 64.7879 141.614 68.2429 142.639 76.6071C143.793 77.0745 144.831 77.7931 145.68 78.7119C146.53 79.6307 147.169 80.7272 147.553 81.9238C147.937 83.1205 148.057 84.388 147.903 85.6367C147.75 86.8853 147.327 88.0845 146.665 89.1494C150.691 96.5231 145.112 104.903 136.594 105.029L115.607 105.331L132.413 118.062C139.223 123.219 138.885 133.337 131.342 136.902C131.26 138.157 130.907 139.379 130.307 140.481C129.706 141.583 128.874 142.538 127.868 143.278C126.863 144.018 125.709 144.524 124.488 144.762C123.267 144.999 122.01 144.962 120.805 144.653C115.133 150.812 105.525 148.017 102.776 139.865L96.0012 119.757Z" fill="#D21E6A"/>
<path fill-rule="evenodd" clip-rule="evenodd" d="M96.0024 119.754V44.0007H96.3713C97.5522 44.0522 98.7094 44.3533 99.7685 44.8847C100.828 45.4161 101.765 46.166 102.521 47.0862C110.612 45.514 116.846 53.438 114.323 61.6882L108.111 81.9933L125.267 69.7418C132.22 64.7776 141.604 68.2325 142.633 76.5967C143.786 77.0642 144.825 77.7827 145.674 78.7015C146.523 79.6203 147.162 80.7168 147.546 81.9135C147.93 83.1101 148.05 84.3776 147.897 85.6263C147.743 86.8749 147.321 88.0741 146.659 89.139C150.688 96.5127 145.106 104.893 136.588 105.018L115.6 105.321L132.407 118.052C139.216 123.209 138.875 133.326 131.335 136.891C131.254 138.147 130.9 139.369 130.3 140.471C129.7 141.573 128.867 142.528 127.862 143.267C126.856 144.007 125.702 144.514 124.481 144.751C123.261 144.989 122.003 144.952 120.799 144.642C115.127 150.805 105.518 148.007 102.769 139.855L96.0024 119.754Z" fill="#E7629A"/>
<path d="M103.831 106.676C108.16 102.293 108.16 95.1883 103.831 90.8059C99.5029 86.4236 92.4849 86.4236 88.1564 90.8059C83.8278 95.1883 83.8278 102.293 88.1564 106.676C92.4849 111.058 99.5029 111.058 103.831 106.676Z" fill="#FFDA44"/>
<path fill-rule="evenodd" clip-rule="evenodd" d="M95.9958 87.5165C98.9001 87.5715 101.667 88.7782 103.702 90.877C105.736 92.9759 106.876 95.7993 106.876 98.7401C106.876 101.681 105.736 104.504 103.702 106.603C101.667 108.702 98.9001 109.909 95.9958 109.964V87.5165Z" fill="#FFB655"/>
</svg>
