<svg width="598" height="598" viewBox="0 0 598 598" fill="none" xmlns="http://www.w3.org/2000/svg">
<path fill-rule="evenodd" clip-rule="evenodd" d="M298.674 435.27L259.741 550.942C243.954 597.771 188.81 613.885 156.188 578.447C149.268 580.227 142.046 580.441 135.035 579.075C128.024 577.709 121.396 574.796 115.62 570.542C109.845 566.289 105.063 560.799 101.616 554.463C98.1678 548.126 96.138 541.099 95.6702 533.878C52.3893 513.379 50.3824 455.226 89.5382 425.551L186.067 352.324L65.5006 350.606C16.6451 349.883 -15.4644 301.675 7.6589 259.298C3.86056 253.172 1.43611 246.275 0.556922 239.095C-0.322267 231.914 0.365259 224.626 2.57091 217.745C4.77656 210.863 8.44649 204.557 13.3213 199.271C18.1961 193.986 24.1569 189.85 30.7822 187.156C36.6467 139.084 90.5862 119.217 130.522 147.762L229.059 218.187L193.381 101.43C179.043 54.262 214.029 8.06554 261.235 17.4676C265.807 11.9066 271.53 7.43257 277.998 4.36226C284.466 1.29195 291.521 -0.299561 298.663 -0.299561C305.805 -0.299561 312.859 1.29195 319.327 4.36226C325.795 7.43257 331.518 11.9066 336.09 17.4676C383.251 8.06554 418.259 54.262 403.944 101.43L368.267 218.187L466.803 147.74C506.739 119.195 560.656 139.061 566.543 187.156C573.17 189.844 579.134 193.976 584.011 199.259C588.888 204.542 592.559 210.847 594.766 217.728C596.972 224.609 597.659 231.897 596.777 239.077C595.896 246.257 593.469 253.152 589.666 259.276C612.79 301.675 580.747 349.86 531.825 350.584L411.28 352.324L507.809 425.529C546.921 455.181 544.981 513.356 501.655 533.855C501.187 541.076 499.157 548.104 495.71 554.44C492.262 560.777 487.481 566.266 481.705 570.52C475.929 574.773 469.301 577.687 462.29 579.053C455.279 580.419 448.057 580.204 441.138 578.424C408.56 613.84 353.371 597.771 337.584 550.896L298.674 435.27Z" fill="#D21E6A"/>
<path fill-rule="evenodd" clip-rule="evenodd" d="M298.681 435.256V-0.333252H300.799C307.582 -0.0373117 314.228 1.6941 320.311 4.74965C326.394 7.80521 331.779 12.1173 336.119 17.4085C382.589 8.36814 418.4 53.9318 403.906 101.371L368.229 218.128L466.765 147.681C506.701 119.136 560.596 139.002 566.505 187.097C573.133 189.785 579.096 193.917 583.973 199.2C588.85 204.483 592.522 210.788 594.728 217.669C596.934 224.55 597.621 231.838 596.74 239.018C595.858 246.198 593.431 253.093 589.629 259.217C612.774 301.616 580.709 349.802 531.787 350.525L411.242 352.265L507.772 425.47C546.883 455.122 544.921 513.297 501.617 533.796C501.15 541.017 499.12 548.045 495.672 554.381C492.224 560.718 487.443 566.207 481.667 570.461C475.892 574.714 469.263 577.628 462.252 578.994C455.241 580.36 448.02 580.145 441.1 578.365C408.522 613.804 353.334 597.712 337.547 550.837L298.681 435.256Z" fill="#E7629A"/>
<path d="M343.647 360.054C368.509 334.855 368.509 294 343.647 268.801C318.786 243.602 278.478 243.602 253.616 268.801C228.755 294 228.755 334.855 253.616 360.054C278.478 385.253 318.786 385.253 343.647 360.054Z" fill="#FFDA44"/>
<path fill-rule="evenodd" clip-rule="evenodd" d="M298.643 249.886C315.324 250.203 331.216 257.141 342.902 269.21C354.588 281.278 361.135 297.513 361.135 314.423C361.135 331.334 354.588 347.568 342.902 359.637C331.216 371.706 315.324 378.644 298.643 378.961V249.886Z" fill="#FFB655"/>
</svg>
